<svg width="411" height="377" viewBox="0 0 411 377" fill="none" xmlns="http://www.w3.org/2000/svg">
<rect x="93" y="1" width="318" height="243" fill="url(#paint0_linear_9061_214)"/>
<path d="M161.5 206L247.5 74.5H317L406 206H161.5Z" fill="url(#paint1_linear_9061_214)"/>
<path d="M281 1C281.003 1.12871 281.006 1.25742 281.173 8.10064C281.34 14.9439 281.671 28.4977 282 42" stroke="#0169A5" stroke-width="2" stroke-linecap="round"/>
<path d="M281.5 41.5C257.9 43.5 247.667 64.3334 245.5 74.5H320C317 62.6667 305.1 39.5 281.5 41.5Z" fill="url(#paint2_radial_9061_214)"/>
<path d="M411 244H93L0 377H411V244Z" fill="white" fill-opacity="0.4"/>
<defs>
<linearGradient id="paint0_linear_9061_214" x1="252" y1="1" x2="252" y2="244" gradientUnits="userSpaceOnUse">
<stop stop-color="#5F5F5F" stop-opacity="0.1"/>
<stop offset="1" stop-color="white" stop-opacity="0.2"/>
</linearGradient>
<linearGradient id="paint1_linear_9061_214" x1="286.75" y1="81" x2="284" y2="196.5" gradientUnits="userSpaceOnUse">
<stop stop-color="#FFF7C5"/>
<stop offset="0.423077" stop-color="#FFF7C5" stop-opacity="0.547837"/>
<stop offset="1" stop-color="#FFF7C5" stop-opacity="0.05"/>
</linearGradient>
<radialGradient id="paint2_radial_9061_214" cx="0" cy="0" r="1" gradientUnits="userSpaceOnUse" gradientTransform="translate(283 52.5) rotate(90.6511) scale(22.0014 49.4876)">
<stop offset="0.153846" stop-color="#0069A5"/>
<stop offset="1" stop-color="#594D4D"/>
</radialGradient>
</defs>
</svg>
