<svg width="46" height="46" viewBox="0 0 46 46" fill="none" xmlns="http://www.w3.org/2000/svg">
<circle cx="23" cy="23" r="23" fill="#6B6767"/>
<path d="M22.5442 37.0782C22.5442 36.9552 22.5442 36.8322 22.519 33.3123C22.4937 29.7925 22.4432 22.8794 22.4535 19.0588C22.4638 15.2382 22.5364 14.7196 22.578 14.0135C22.6196 13.3074 22.6281 12.4296 22.6368 11.5251" stroke="#EFEFEF" stroke-width="5" stroke-linecap="round"/>
<path d="M12 18.7831C12.0932 18.6999 13.4455 17.7026 15.9865 15.6644C17.4588 14.4834 19.0758 12.7353 20.1256 11.728C21.5128 10.3969 22.0787 10.0431 22.3881 10.0051C23.3836 9.88289 24.8795 11.9894 27.1045 13.4178C29.9524 15.2462 31.5794 16.9952 32.3235 17.7398C32.4612 17.8908 32.5801 18.0141 32.7533 18.1708C32.9264 18.3274 33.1502 18.5135 33.3807 18.7053" stroke="#EFEFEF" stroke-width="5" stroke-linecap="round"/>
</svg>
